PathFileType	4	(X/Y/Z)	C:/Users/opensim2020/Desktop/walking_exp_matlab/subject03_walking13_straight_02.trc																																																																																																																																								
DataRate	CameraRate	NumFrames	NumMarkers	Units	OrigDataRate	OrigDataStartFrame	OrigNumFrames																																																																																																																																				
100	100	8	46	mm	100	1247	193																																																																																																																																				
Frame#	Time	LFHD			RFHD			LBHD			RBHD			C7			T10			CLAV			STRN			RBAK			LSHO			LUPA			LELB			LFRM			LWRA			LWRB			LFIN			RSHO			RUPA			RELB			RFRM			RWRA			RWRB			RFIN			LASI			RASI			LPSI			RPSI			LTHI			LKNE			LTIB			LANK			LHEE			LTOE			RTHI			RKNE			RTIB			RANK			RHEE			RTOE			*39			*40			*41			*42			*43			*44			*45		
		X1	Y1	Z1	X2	Y2	Z2	X3	Y3	Z3	X4	Y4	Z4	X5	Y5	Z5	X6	Y6	Z6	X7	Y7	Z7	X8	Y8	Z8	X9	Y9	Z9	X10	Y10	Z10	X11	Y11	Z11	X12	Y12	Z12	X13	Y13	Z13	X14	Y14	Z14	X15	Y15	Z15	X16	Y16	Z16	X17	Y17	Z17	X18	Y18	Z18	X19	Y19	Z19	X20	Y20	Z20	X21	Y21	Z21	X22	Y22	Z22	X23	Y23	Z23	X24	Y24	Z24	X25	Y25	Z25	X26	Y26	Z26	X27	Y27	Z27	X28	Y28	Z28	X29	Y29	Z29	X30	Y30	Z30	X31	Y31	Z31	X32	Y32	Z32	X33	Y33	Z33	X34	Y34	Z34	X35	Y35	Z35	X36	Y36	Z36	X37	Y37	Z37	X38	Y38	Z38	X39	Y39	Z39	X40	Y40	Z40	X41	Y41	Z41	X42	Y42	Z42	X43	Y43	Z43	X44	Y44	Z44	X45	Y45	Z45	X46	Y46	Z46
																																																																																																																																											
169	1.68	795.43121	1606.39319	-1458.60559	786.30847	1608.08765	-1325.76819	677.32275	1541.17603	-1463.06433	672.85754	1543.00073	-1331.74719	668.05151	1381.64636	-1399.83691	665.50104	1068.0083	-1395.08765	799.49451	1318.86963	-1404.4458	857.78442	1158.94299	-1421.35242	636.51587	1201.02917	-1309.43127	739.55194	1355.36084	-1556.02429	779.65662	1171.73572	-1636.76501	834.90625	1063.54663	-1652.12341	931.5144	980.62573	-1641.82971	1019.69928	908.08759	-1598.91846	1002.60992	892.2207	-1649.00391	1071.9386	849.57843	-1635.08972	754.5448	1333.94885	-1241.91187	733.59033	1109.96021	-1179.74475	731.64215	995.74768	-1172.13892	717.04865	859.14728	-1170.92261	721.56915	759.31195	-1207.28857	691.79602	761.40546	-1160.98352	687.76135	685.71832	-1176.37488	814.57697	914.86371	-1538.55566	858.1275	916.58044	-1302.6405	665.56647	936.14264	-1454.8136	692.86707	936.80438	-1309.90137	697.89697	625.93231	-1572.74768	654.82874	450.29926	-1547.05408	510.9346	306.83383	-1536.42395	386.7146	137.6801	-1488.39429	338.14163	130.64896	-1449.08923	498.65024	34.33314	-1457.30078	883.91083	628.9267	-1252.45715	961.25183	474.53073	-1301.27869	972.11511	281.42761	-1301.35522	1007.15784	70.4812	-1349.18628	964.94354	40.1278	-1403.88892	1145.91101	41.66676	-1361.38379	NaN	NaN	NaN	699.58673	1652.39856	-1413.50269	NaN	NaN	NaN	NaN	NaN	NaN	NaN	NaN	NaN	NaN	NaN	NaN	NaN	NaN	NaN
170	1.69	806.90912	1606.91382	-1458.17932	798.76007	1608.81689	-1325.32007	689.1311	1541.16101	-1461.60034	685.60297	1543.21704	-1330.30322	681.14642	1381.27979	-1398.2041	680.76251	1067.68164	-1394.73975	813.08972	1319.45496	-1403.45984	872.44659	1160.00537	-1420.63428	650.72339	1200.08594	-1308.56384	751.8349	1355.46082	-1555.01721	791.29999	1171.05664	-1635.48596	846.27344	1062.77576	-1651.03125	943.9234	981.27148	-1640.63538	1033.37378	910.64996	-1597.61182	1016.11316	893.70392	-1647.26514	1086.26331	852.62402	-1633.52124	768.18298	1333.90833	-1240.65625	747.50696	1109.90356	-1178.67468	745.69128	995.66284	-1170.95129	731.30273	858.92566	-1170.16846	735.46667	758.62439	-1207.36182	706.37598	761.1684	-1160.3844	701.75366	685.45972	-1176.2926	830.4895	914.36438	-1537.66528	874.15973	917.2218	-1302.28662	681.4165	935.58679	-1453.4679	709.20782	937.98682	-1308.35217	715.3551	625.034	-1573.83777	673.06921	448.90744	-1550.38342	525.02008	309.6275	-1538.1814	395.74307	145.31134	-1488.84985	348.14542	141.33049	-1448.75183	499.8978	34.55586	-1457.76038	896.99823	628.75684	-1250.9176	977.96576	475.85641	-1301.25916	986.73438	283.21234	-1300.86548	1010.00372	70.41486	-1350.11548	966.16034	40.90485	-1403.87451	1148.7229	39.49211	-1361.32251	NaN	NaN	NaN	710.90222	1652.29565	-1412.25732	NaN	NaN	NaN	NaN	NaN	NaN	NaN	NaN	NaN	NaN	NaN	NaN	NaN	NaN	NaN
171	1.7	818.39447	1607.5907	-1457.63611	811.13757	1609.69983	-1324.75281	700.91394	1541.4021	-1460.20581	698.31042	1543.68286	-1328.87329	694.36896	1381.4071	-1396.70471	695.69604	1067.94556	-1394.32788	826.22217	1320.30652	-1402.43127	886.97125	1161.33459	-1419.73962	665.03131	1199.55481	-1307.47375	764.34497	1355.91248	-1554.10071	802.85809	1170.61389	-1634.23352	857.39301	1062.19861	-1649.82031	955.82953	981.84491	-1639.40173	1046.30042	912.82269	-1596.24927	1028.90332	894.99493	-1645.50549	1099.80933	855.27789	-1631.95361	781.49854	1334.28784	-1239.54248	761.51563	1110.17627	-1177.57214	760.02466	995.76666	-1169.88464	746.23102	859.03204	-1169.3197	750.62122	758.82202	-1206.75525	721.45465	761.07922	-1159.7439	716.27002	685.34332	-1176.11438	846.29504	914.07983	-1536.46423	889.49268	918.12738	-1301.69617	697.13226	935.15625	-1452.46875	724.81219	939.68823	-1307.25159	733.54828	623.86597	-1575.04089	693.07031	447.19318	-1554.12939	541.04492	312.23441	-1540.23987	406.92938	153.51273	-1489.79919	360.52234	152.67911	-1448.58838	500.95404	34.17156	-1457.14551	910.32623	629.14075	-1249.86157	995.39594	478.39648	-1302.61462	999.49158	284.55548	-1301.12061	1010.64264	71.45645	-1351.47937	966.48669	41.04569	-1403.9856	1150.20569	38.56621	-1363.82202	NaN	NaN	NaN	722.52991	1652.93018	-1411.08643	NaN	NaN	NaN	NaN	NaN	NaN	NaN	NaN	NaN	NaN	NaN	NaN	NaN	NaN	NaN
172	1.71	829.95673	1608.29651	-1457.03821	823.56342	1610.50696	-1324.19055	712.74713	1541.67114	-1458.75623	710.79022	1544.18823	-1327.54065	707.92157	1381.74402	-1395.0387	710.40106	1068.24878	-1393.45337	839.62244	1321.18311	-1401.43958	901.27637	1162.59351	-1418.77393	678.9165	1199.72656	-1306.18225	776.89197	1356.599	-1553.20923	814.31177	1170.37085	-1633.0177	868.328	1061.77954	-1648.50208	967.35437	982.36835	-1638.11731	1058.71765	914.75293	-1595.00049	1040.97107	895.9552	-1643.78589	1112.56592	857.45941	-1630.46899	794.82727	1334.84277	-1238.46875	775.59009	1110.74072	-1176.49377	774.6618	996.34589	-1168.87378	761.44568	859.47021	-1168.45496	766.34967	759.27393	-1205.99451	737.24359	761.3233	-1158.92432	731.76294	685.57715	-1175.79248	861.90582	914.04663	-1534.92432	904.66711	919.7323	-1300.8833	712.39923	934.93982	-1451.84338	739.59613	941.71954	-1306.61963	752.26575	622.66095	-1576.39246	714.24805	445.49936	-1558.08398	559.04059	314.65555	-1542.72229	420.53992	160.98198	-1491.05725	375.55487	164.00005	-1449.08789	502.81201	33.87257	-1456.72974	926.16443	631.11151	-1250.47034	1012.13995	480.83081	-1304.41248	1010.28638	285.34622	-1301.40698	1012.58282	72.22141	-1351.72986	967.15881	41.43129	-1403.47009	1152.09912	38.06483	-1366.10925	NaN	NaN	NaN	734.29065	1653.33826	-1409.8927	NaN	NaN	NaN	NaN	NaN	NaN	NaN	NaN	NaN	NaN	NaN	NaN	NaN	NaN	NaN
173	1.72	841.57233	1608.90955	-1456.30505	835.74805	1611.21082	-1323.46423	724.47644	1541.85583	-1457.47156	723.30396	1544.4635	-1326.2334	720.97882	1382.29602	-1394.224	724.82458	1068.49121	-1392.36218	852.72919	1322.01233	-1400.45569	915.34076	1163.7229	-1417.55872	693.01941	1199.95068	-1304.89563	789.71667	1357.38733	-1552.27124	825.68756	1170.31152	-1631.84912	879.01208	1061.46594	-1646.95972	978.44153	982.74304	-1636.71777	1070.5426	916.25323	-1593.74194	1052.55457	896.62781	-1642.13232	1124.6156	859.09137	-1628.99902	807.85754	1335.66113	-1237.56616	789.66473	1111.60693	-1175.47217	789.51276	997.16168	-1167.90027	777.29529	860.15619	-1167.40259	783.66919	760.29657	-1204.94128	753.69543	761.8999	-1157.86768	748.22137	686.02441	-1175.24963	877.29352	914.11072	-1533.21887	919.34283	921.93756	-1299.71704	727.34277	934.71851	-1451.60852	753.68317	943.67615	-1306.40161	771.65253	621.24158	-1577.24536	736.69775	443.65796	-1561.05798	579.17505	316.64276	-1545.24756	436.76175	167.57156	-1493.45093	392.75769	175.26186	-1450.77698	505.18167	33.53093	-1456.12366	944.19489	633.9577	-1250.96155	1026.85339	481.77307	-1305.79675	1019.06812	285.91406	-1301.81604	1013.27655	72.50558	-1351.88696	967.46191	41.67589	-1403.20996	1152.67651	37.79104	-1366.28101	NaN	NaN	NaN	746.12543	1653.71106	-1408.76904	NaN	NaN	NaN	NaN	NaN	NaN	NaN	NaN	NaN	NaN	NaN	NaN	NaN	NaN	NaN
174	1.73	853.26141	1609.51343	-1455.54541	847.86871	1611.82397	-1322.62256	736.37305	1542.17932	-1456.41663	735.64899	1544.57935	-1324.99792	733.95245	1382.7019	-1393.40527	738.79285	1068.82092	-1391.54749	865.99762	1322.75574	-1399.52332	929.28809	1164.76172	-1416.41211	706.87512	1200.2937	-1303.75134	802.63635	1358.19873	-1551.32751	836.99805	1170.3363	-1630.64258	889.68164	1061.24268	-1645.36963	989.7226	983.22388	-1635.23096	1081.84009	917.28424	-1592.46204	1063.59912	896.95544	-1640.38428	1136.09338	860.17322	-1627.52185	820.80554	1336.60852	-1236.77954	803.72968	1112.6062	-1174.49939	804.32593	998.10962	-1166.85583	793.33258	861.0929	-1166.24768	800.19098	761.05786	-1203.8468	770.66418	762.5282	-1156.80127	765.49054	686.57538	-1174.48389	892.32355	914.21729	-1531.53064	933.45013	924.22125	-1298.20166	741.60956	934.66534	-1451.74707	767.28131	945.33728	-1306.4126	791.09308	619.61365	-1578.20862	760.18005	441.56287	-1563.23267	601.14117	318.20554	-1547.31592	454.96359	173.18199	-1497.05908	411.79193	187.02847	-1454.56653	507.31165	34.09983	-1455.91272	962.07428	636.80566	-1250.85083	1039.50854	481.9592	-1306.38477	1025.89392	285.98337	-1301.58813	1013.41595	72.94395	-1351.98718	967.37213	41.75356	-1402.68372	1152.94641	37.66602	-1366.89612	NaN	NaN	NaN	757.8653	1654.22534	-1407.58081	NaN	NaN	NaN	NaN	NaN	NaN	NaN	NaN	NaN	NaN	NaN	NaN	NaN	NaN	NaN
175	1.74	865.0108	1610.25061	-1454.65295	859.87372	1612.45593	-1321.72961	748.38391	1542.39697	-1455.2887	747.8064	1544.83105	-1323.9364	746.96942	1382.7384	-1392.42517	752.3092	1069.53833	-1391.27698	879.23981	1323.45886	-1398.67883	942.8468	1165.65686	-1415.25049	720.38141	1200.91357	-1303.00513	815.5423	1358.99683	-1550.49243	848.40179	1170.47742	-1629.55664	900.19977	1061.01135	-1643.73083	1000.11182	983.09912	-1633.8075	1092.79419	917.85455	-1591.17676	1074.18811	896.87396	-1638.72314	1147.00793	860.61792	-1626.04175	833.41492	1337.55908	-1236.03662	817.65643	1113.73169	-1173.48706	819.1568	999.30615	-1165.75488	809.72949	862.17511	-1164.86694	818.03473	762.16534	-1202.43933	788.1189	763.35797	-1155.46497	783.43164	687.23505	-1173.43115	906.83289	914.30542	-1529.94031	947.10553	926.58356	-1296.55652	755.55249	934.67468	-1451.84009	780.60321	946.69061	-1306.41321	810.44873	617.6861	-1578.74377	784.61493	439.14133	-1564.85706	624.67462	319.35168	-1549.30188	474.50711	178.72359	-1501.05823	432.18484	199.19612	-1460.08569	512.94635	37.96165	-1456.24268	978.64484	639.81097	-1249.96106	1050.10327	481.76517	-1306.3894	1031.17249	285.76245	-1301.41125	1013.7583	72.78931	-1351.9491	967.36938	41.91777	-1402.42334	1153.08423	37.52258	-1367.10022	NaN	NaN	NaN	769.44183	1654.38293	-1406.66553	NaN	NaN	NaN	NaN	NaN	NaN	NaN	NaN	NaN	NaN	NaN	NaN	NaN	NaN	NaN
176	1.75	876.77167	1611.13977	-1453.70435	871.67157	1613.19104	-1320.755	760.31506	1542.97571	-1454.57019	759.88257	1545.11792	-1323.07251	759.3111	1382.93909	-1392.06775	765.95282	1069.81836	-1391.12305	892.30945	1324.2533	-1397.99536	956.13934	1166.5636	-1414.35754	733.77075	1201.47131	-1302.33984	828.53125	1359.77124	-1549.75452	859.83594	1170.62952	-1628.51794	911.02148	1060.81934	-1642.06909	1010.56421	982.84186	-1632.43323	1103.22205	917.70215	-1589.84326	1084.35632	896.3512	-1637.07983	1157.3363	860.34076	-1624.5769	846.10876	1338.47778	-1235.34326	831.45984	1114.88879	-1172.48767	833.7854	1000.54388	-1164.42688	826.15649	863.34399	-1163.40271	836.43225	763.42432	-1200.79517	805.99554	764.229	-1154.19983	802.34668	688.06396	-1172.09045	921.02936	914.40009	-1528.63159	960.23224	928.5592	-1294.98535	768.91864	934.85724	-1451.85303	793.71436	947.74988	-1306.41016	829.4306	615.68854	-1578.87744	809.95203	436.42294	-1566.09082	649.60101	319.53061	-1552.19421	494.10764	185.86574	-1504.13062	452.95786	210.07562	-1464.91467	523.61005	43.97374	-1459.14026	991.63983	641.82965	-1249.02454	1058.82397	480.94562	-1305.74902	1036.02087	285.42389	-1301.0199	1013.81787	73.07513	-1352.13147	967.30432	42.09885	-1402.19922	1153.13452	37.43835	-1367.3855	NaN	NaN	NaN	780.90063	1654.87671	-1405.43774	NaN	NaN	NaN	NaN	NaN	NaN	NaN	NaN	NaN	NaN	NaN	NaN	NaN	NaN	NaN
